<svg width="150" height="70" viewBox="0 0 186 70" fill="none" xmlns="http://www.w3.org/2000/svg">
<path d="M160.33 25.5375C160.33 25.5375 160.285 25.5886 160.266 25.6141C160.028 25.8757 159.739 26.0799 159.424 26.2266C159.405 26.233 159.386 26.2458 159.366 26.2522C159.02 26.3989 158.544 26.5904 158.03 26.7882C157.761 26.8839 157.51 26.9796 157.266 27.0753C157.195 27.1008 157.118 27.1327 157.048 27.1582C156.347 27.3816 155.602 27.5921 154.876 27.7835C152.879 28.3068 151.041 28.6832 150.733 28.747C150.733 28.747 150.727 28.747 150.72 28.747C150.714 28.747 150.701 28.747 150.701 28.747C150.695 28.747 150.688 28.747 150.688 28.747C147.444 29.334 144.187 29.7297 140.873 29.8573V30.1572C140.873 34.9554 140.873 39.7537 140.879 44.5584C140.879 45.4006 140.956 48.4187 141.046 49.2482C141.168 50.3712 141.811 51.1114 142.806 51.2709C143.307 51.3475 143.834 51.3219 144.335 51.2709C145.164 51.1752 145.986 51.0157 146.808 50.8944C147.785 50.7477 148.562 51.1177 149.153 51.8643C150.065 53.0192 149.815 54.793 148.639 55.7374C148.029 56.2287 147.335 56.535 146.596 56.7647C145.44 57.1284 144.252 57.256 143.044 57.3262C141.38 57.4219 139.723 57.3836 138.098 56.9625C135.747 56.3499 134.199 54.927 133.582 52.5534C133.235 51.2071 133.081 49.8288 133.075 48.4442C133.049 43.11 133.023 35.6063 133.017 30.2784V29.8254C132.24 29.8126 131.469 29.8509 130.743 29.6914C130.46 29.6276 130.184 29.5382 129.914 29.4042C129.895 29.3915 129.876 29.3851 129.856 29.3723C129.702 29.2894 129.567 29.1937 129.445 29.0916C129.253 28.9257 129.098 28.747 128.976 28.5684C128.842 28.3642 128.745 28.16 128.681 27.975C128.527 27.5538 128.52 27.2157 128.52 27.1838C128.418 25.914 129.156 24.8229 130.422 24.4656C130.974 24.3124 131.559 24.2742 132.13 24.204C132.407 24.1721 132.689 24.204 133.023 24.204C133.023 24.0636 133.023 23.936 133.023 23.8084C133.03 21.7665 133.023 19.7311 133.049 17.6893C133.055 16.8917 133.113 16.0941 133.389 15.3348C133.935 13.829 135.451 12.8399 137.064 12.942C139.119 13.0697 140.648 14.5117 140.732 16.5408C140.828 18.9208 140.828 21.3008 140.866 23.6808C140.866 23.8339 140.866 23.987 140.866 24.1784C140.976 24.1848 141.072 24.1976 141.162 24.1976C143.661 24.1402 146.153 24.0636 148.652 24.0189C151.465 23.9679 154.273 23.8786 157.08 24.1274C157.973 24.204 158.859 24.389 159.745 24.5294C159.874 24.5485 159.996 24.6123 160.118 24.6698C160.606 24.9122 160.677 25.11 160.324 25.5375H160.33Z" fill="white"/>
<path d="M119.148 17.7711C119.128 16.5956 119.006 15.4264 118.589 14.3084C118.223 13.3118 117.543 12.6666 116.496 12.4621C116.008 12.3663 115.501 12.3024 115.007 12.3344C113.485 12.4238 112.458 13.2224 111.893 14.6151C111.604 15.337 111.534 16.0972 111.547 16.8703C111.547 17.1514 111.547 17.4325 111.547 17.7072C111.521 17.7136 111.495 17.7199 111.47 17.7263C111.155 17.3622 110.84 16.9916 110.519 16.6275C109.235 15.1965 107.752 14.0209 105.955 13.2863C103.721 12.3727 101.397 12.2002 99.0215 12.4749C95.8244 12.8454 93.1665 14.2509 91.0608 16.6722C89.0899 18.9466 88.1141 21.6553 87.6776 24.5813C87.3566 26.6768 87.3758 28.7786 87.6005 30.8869C87.8445 33.1868 88.4351 35.3908 89.488 37.4607C90.8618 40.1631 92.8776 42.2266 95.6895 43.4468C97.9493 44.4307 100.318 44.6415 102.758 44.354C105.274 44.0538 107.425 43.0188 109.223 41.2619C109.871 40.6295 110.455 39.9267 111.091 39.2304C111.091 39.307 111.091 39.3837 111.091 39.4604C111.059 40.7445 111.039 42.035 110.994 43.3191C110.95 44.5585 110.885 45.7979 110.564 47.0117C109.974 49.2541 108.555 50.6468 106.314 51.209C104.632 51.6306 102.918 51.7009 101.198 51.5284C99.5286 51.3623 98.0328 50.781 96.858 49.5416C96.2866 48.9347 95.7602 48.2894 95.2209 47.6505C94.7651 47.1139 94.2643 46.6348 93.6288 46.2962C91.8505 45.357 89.5778 46.0406 88.7625 47.7975C88.3067 48.7813 88.3902 49.7907 88.7625 50.7746C89.3724 52.3653 90.5408 53.5025 91.9403 54.3969C94.8421 56.256 98.0842 57.0418 101.5 57.1823C103.291 57.259 105.088 57.2143 106.873 57.0035C108.561 56.8054 110.211 56.486 111.797 55.8599C114.956 54.6141 117.048 52.3653 118.127 49.171C118.865 46.9734 119.135 44.6926 119.141 42.3927C119.167 35.5761 119.154 28.7658 119.161 21.9492C119.161 20.5501 119.167 19.151 119.141 17.7519L119.148 17.7711ZM111.149 30.4908C110.911 32.714 110.121 34.7072 108.516 36.3172C107.265 37.5757 105.737 38.2785 103.952 38.4382C102.88 38.534 101.833 38.4382 100.819 38.0804C98.9829 37.4416 97.6604 36.2086 96.7681 34.5092C96.1197 33.2762 95.8115 31.941 95.6767 30.561C95.6125 29.8647 95.5804 29.1683 95.5547 28.7275C95.574 26.6065 95.7666 24.773 96.492 23.0353C97.3844 20.8951 98.816 19.2468 101.134 18.6399C104.446 17.7711 107.65 18.7293 109.633 21.9556C110.449 23.2844 110.86 24.7474 111.065 26.2743C111.251 27.6734 111.296 29.0789 111.142 30.4908H111.149Z" fill="white"/>
<path d="M57.6032 39.7642C57.4489 38.0761 57.0888 36.4392 56.4395 34.8726C55.0636 31.5156 52.7491 29.0283 49.4573 27.4489C47.1106 26.3235 44.616 25.8951 41.89 25.8695C39.8584 25.8695 37.7689 26.2084 35.8144 26.9373C32.0018 28.3633 29.3079 30.9529 27.7521 34.7063C26.9806 36.5671 26.5948 38.5109 26.4726 40.5187C26.3441 42.6863 26.5048 44.822 27.1091 46.9065C28.5236 51.8237 31.6418 55.1807 36.528 56.8048C39.5691 57.8151 42.7065 57.9174 45.844 57.2524C51.7911 55.9991 55.5136 52.3672 57.1017 46.5676C57.7125 44.3425 57.8089 42.0661 57.5967 39.7642H57.6032ZM49.0715 46.6252C48.3772 48.5435 47.2392 50.1101 45.3747 51.0756C44.3203 51.6191 43.1887 51.8109 42.0122 51.8109C40.392 51.8109 38.9068 51.3825 37.621 50.3722C36.4894 49.4834 35.7308 48.3197 35.21 46.9961C34.5092 45.2121 34.2971 43.3513 34.3228 41.4523C34.3485 39.5596 34.6442 37.7244 35.4222 35.9852C36.3994 33.8111 38.0003 32.3213 40.3856 31.8289C43.5359 31.1831 46.6027 32.251 48.345 35.2818C49.2194 36.7973 49.5987 38.447 49.7466 40.1606C49.7916 40.6913 49.8045 41.2221 49.8366 41.7528C49.8109 43.4153 49.6373 45.0522 49.0715 46.6252Z" fill="white"/>
<path d="M79.0684 52.2211C78.817 52.5143 78.5656 52.8074 78.3077 53.0878C77.0442 54.4707 75.6453 55.6751 73.8983 56.4399C72.7057 56.9624 71.4486 57.2683 70.1529 57.383C68.5026 57.5296 66.8651 57.485 65.2664 57.0134C63.081 56.3698 61.2889 55.1781 60.0447 53.2535C59.3356 52.1574 58.9875 50.9274 58.7554 49.6593C58.5104 48.3019 58.4653 46.9317 58.4653 45.5616C58.4653 40.6227 58.4653 35.6902 58.4653 30.7513C58.4653 29.9292 58.504 29.1135 58.7812 28.3297C59.3872 26.5899 60.8828 25.7614 62.6749 25.8825C64.7313 26.0227 65.9497 27.3992 66.214 29.2155C66.2914 29.738 66.3365 30.2733 66.3365 30.8023C66.3494 35.1867 66.3365 39.5712 66.3559 43.9493C66.3623 45.4086 66.5235 46.8616 67.0199 48.2573C67.3938 49.3024 68.0062 50.1882 68.9732 50.7936C69.5727 51.1632 70.2367 51.3672 70.9329 51.4245C73.2214 51.6157 75.1425 50.8382 76.7219 49.2004C77.7985 48.0852 78.2949 46.7469 78.4496 45.2366C78.6494 43.3375 78.6688 41.4384 78.6688 39.533C78.6688 36.6015 78.6688 33.6637 78.6688 30.7322C78.6688 29.9356 78.7203 29.139 78.9911 28.3743C79.6293 26.5517 81.2667 25.7296 83.0331 25.8889C84.9864 26.061 86.1854 27.3929 86.4368 29.3875C86.482 29.7508 86.5142 30.114 86.5142 30.4773C86.5142 38.1373 86.5142 45.7974 86.5013 53.4574C86.5013 54.4771 86.2821 55.4649 85.5988 56.2742C84.6318 57.4213 83.3618 57.7336 81.9371 57.3894C80.6221 57.0708 79.7776 56.1977 79.4101 54.9359C79.236 54.3305 79.2103 53.6741 79.1394 53.0432C79.1071 52.7819 79.1394 52.5143 79.1394 52.2466C79.12 52.2339 79.1007 52.2275 79.0749 52.2147L79.0684 52.2211Z" fill="white"/>
<path d="M14.3393 32.7935C13.6766 32.8892 13.0525 32.9721 12.4348 33.0614C11.4376 33.2018 10.4403 33.2975 9.4817 32.8764C8.36865 32.3915 7.81534 31.511 7.73813 30.3242C7.66736 29.1438 8.22067 28.3144 9.26295 27.7848C10.1251 27.3446 11.0644 27.1978 12.0038 27.0638C12.4863 26.9936 12.9624 26.9235 13.49 26.8469C13.3935 26.1514 13.3034 25.4942 13.2069 24.8307C12.9495 23.025 12.7887 21.2257 13.0075 19.3945C13.3484 16.5935 14.8733 14.7304 17.4661 13.6585C18.9588 13.0396 20.5222 12.7078 22.1049 12.4526C23.411 12.2484 24.7106 12.1272 26.0231 12.191C26.9432 12.2357 27.8439 12.3824 28.6739 12.8099C30.4561 13.7223 30.7842 16.0767 29.3173 17.4421C28.8926 17.8377 28.3779 18.0419 27.7989 18.061C26.8467 18.0929 25.8945 18.0993 24.9422 18.1376C24.2474 18.1695 23.5783 18.3099 22.9349 18.5715C22.0663 18.9351 21.6095 19.6051 21.468 20.5111C21.3007 21.5639 21.3586 22.6103 21.4937 23.6503C21.5773 24.3139 21.6867 24.9774 21.7897 25.692C22.3365 25.6218 22.8705 25.5517 23.411 25.4815C25.2125 25.239 27.0139 24.9583 28.8219 24.7605C29.6904 24.6648 30.5847 24.6393 31.4469 24.8881C32.3412 25.1433 32.6243 25.7558 32.2447 26.6044C32.1482 26.8214 32.0323 27.0319 31.8972 27.217C30.8099 28.6908 29.4459 29.8138 27.7088 30.4582C26.718 30.8283 25.7336 31.2047 24.6785 31.3515C24.0801 31.4344 23.4753 31.5174 22.877 31.6067C22.8062 31.6195 22.7419 31.6322 22.6389 31.6514C22.7354 32.366 22.8319 33.0614 22.9284 33.7569C23.1536 35.3712 23.3853 36.979 23.6169 38.5933C23.8421 40.182 24.0672 41.7707 24.2924 43.3595C24.5176 44.961 24.7492 46.5561 24.9744 48.1576C25.206 49.7718 25.2639 50.1546 25.4956 51.7689C25.6371 52.7898 25.7465 53.8106 25.4634 54.8251C25.013 56.4458 23.9579 57.4411 22.2851 57.7474C20.1812 58.1366 18.354 57.0647 17.6656 54.9464C17.376 54.0467 17.2409 53.0896 17.0929 52.1453C16.842 50.5375 16.797 50.1483 16.5654 48.534C16.3402 46.9453 16.115 45.3565 15.8898 43.7678C15.6582 42.1536 15.433 40.5457 15.2014 38.9314C14.9762 37.3427 14.751 35.754 14.5258 34.1653C14.4615 33.725 14.3972 33.2784 14.3264 32.7807L14.3393 32.7935Z" fill="white"/>
<path d="M125.321 22.211C123.746 22.1141 122.41 21.5973 121.736 20.144C120.465 17.4052 122.183 14.8667 124.712 14.5114C126.384 14.2724 127.772 14.8085 128.75 16.2296C129.159 16.8239 129.256 17.515 129.276 18.2191C129.327 20.1827 128.141 21.7136 126.281 22.0947C125.95 22.1593 125.613 22.1787 125.321 22.2174V22.211Z" fill="white"/>
<path d="M177.909 39.7458C177.767 38.0561 177.394 36.4177 176.739 34.8496C175.151 31.0223 172.406 28.3854 168.511 26.9197C166.73 26.2477 164.879 25.9597 162.989 25.8829C162.61 25.8701 162.231 25.8637 161.852 25.8765C161.029 25.8957 160.206 25.9725 159.39 26.1069C158.927 26.1837 158.464 26.2669 158.046 26.3373C156.118 26.8109 154.633 27.5533 153.772 28.0526C153.759 28.059 153.746 28.0654 153.733 28.0782C153.47 28.2382 153.213 28.3982 152.968 28.571C152.962 28.571 152.955 28.5774 152.955 28.5774C150.217 30.4591 148.449 33.1088 147.485 36.3729C146.849 38.549 146.656 40.7698 146.791 43.0291C146.92 45.1732 147.337 47.2533 148.244 49.2118C150.191 53.3847 153.444 56.0088 157.898 57.1481C159.756 57.6217 161.659 57.7561 163.574 57.6281C165.773 57.4873 167.887 57.0265 169.88 56.0536C173.12 54.4664 175.37 51.9767 176.726 48.6677C177.491 46.7989 177.883 44.8532 177.96 42.8371C177.966 42.6259 177.999 42.4211 178.018 42.2099V41.2755C177.973 40.7698 177.928 40.2642 177.889 39.7522L177.909 39.7458ZM169.392 46.6325C168.691 48.5653 167.553 50.1462 165.676 51.1126C164.635 51.6503 163.51 51.8423 162.347 51.8423C160.714 51.8423 159.216 51.4135 157.924 50.3958C156.793 49.4998 156.041 48.3349 155.52 47.0101C154.826 45.2308 154.614 43.3811 154.64 41.4931C154.665 39.5986 154.955 37.7617 155.732 36.0209C156.709 33.8448 158.297 32.3471 160.682 31.8543C163.844 31.1951 166.91 32.2767 168.646 35.2912C169.533 36.8273 169.919 38.4978 170.054 40.2386C170.092 40.757 170.112 41.2819 170.144 41.8003C170.118 43.4515 169.944 45.0836 169.379 46.6453L169.392 46.6325Z" fill="white"/>
<path d="M129.276 52.7626C129.276 53.3781 129.211 54.0128 129.074 54.6155C128.762 56.0005 127.943 56.9943 126.552 57.4623C126.26 57.5649 125.941 57.6034 125.636 57.6739H124.823C124.693 57.6419 124.57 57.6034 124.44 57.5778C122.919 57.2572 121.996 56.289 121.593 54.8592C121.405 54.1924 121.32 53.4807 121.32 52.7882C121.301 45.3506 121.307 37.9066 121.314 30.4691C121.314 29.533 121.418 28.6033 121.853 27.7441C122.509 26.4553 123.582 25.8013 125.038 25.7244C125.655 25.6923 126.24 25.7693 126.78 25.9809C127.098 26.1027 127.404 26.2758 127.696 26.4938C127.703 26.5002 127.716 26.5066 127.729 26.5066C128.132 26.8208 128.58 27.2953 128.886 28.0006C128.899 28.0262 128.912 28.0583 128.918 28.0839C128.918 28.0967 128.931 28.116 128.938 28.1288C128.944 28.148 128.951 28.1673 128.957 28.1865C128.97 28.2186 128.977 28.2506 128.99 28.2763C129.009 28.3404 129.029 28.3981 129.048 28.4622C129.055 28.4943 129.068 28.5263 129.074 28.5584C129.081 28.584 129.087 28.6161 129.094 28.6417C129.094 28.6417 129.094 28.6481 129.094 28.6545C129.133 28.8213 129.172 28.988 129.198 29.1547C129.256 29.5265 129.276 29.9112 129.276 30.3024C129.276 37.7848 129.282 45.2737 129.269 52.7561L129.276 52.7626Z" fill="white"/>
</svg>
