<svg width="150" height="70" viewBox="0 0 186 70" fill="none" xmlns="http://www.w3.org/2000/svg">
<path d="M160.33 25.5375C160.33 25.5375 160.285 25.5886 160.266 25.6141C160.028 25.8757 159.739 26.0799 159.424 26.2266C159.405 26.233 159.386 26.2458 159.366 26.2522C159.019 26.3989 158.544 26.5904 158.03 26.7882C157.76 26.8839 157.51 26.9796 157.266 27.0753C157.195 27.1008 157.118 27.1327 157.047 27.1582C156.347 27.3816 155.602 27.5921 154.876 27.7835C152.878 28.3068 151.041 28.6832 150.733 28.747C150.733 28.747 150.727 28.747 150.72 28.747C150.714 28.747 150.701 28.747 150.701 28.747C150.694 28.747 150.688 28.747 150.688 28.747C147.444 29.334 144.187 29.7297 140.873 29.8573V30.1572C140.873 34.9554 140.873 39.7537 140.879 44.5584C140.879 45.4006 140.956 48.4187 141.046 49.2482C141.168 50.3712 141.811 51.1114 142.806 51.2709C143.307 51.3475 143.834 51.3219 144.335 51.2709C145.164 51.1752 145.986 51.0157 146.808 50.8944C147.785 50.7477 148.562 51.1177 149.153 51.8643C150.065 53.0192 149.814 54.793 148.639 55.7374C148.029 56.2287 147.335 56.535 146.596 56.7647C145.44 57.1284 144.252 57.256 143.044 57.3262C141.38 57.4219 139.723 57.3836 138.098 56.9625C135.747 56.3499 134.199 54.927 133.582 52.5534C133.235 51.2071 133.081 49.8288 133.075 48.4442C133.049 43.11 133.023 35.6063 133.017 30.2784V29.8254C132.239 29.8126 131.469 29.8509 130.743 29.6914C130.46 29.6276 130.184 29.5382 129.914 29.4042C129.895 29.3915 129.876 29.3851 129.856 29.3723C129.702 29.2894 129.567 29.1937 129.445 29.0916C129.253 28.9257 129.098 28.747 128.976 28.5684C128.841 28.3642 128.745 28.16 128.681 27.975C128.527 27.5538 128.52 27.2157 128.52 27.1838C128.417 25.914 129.156 24.8229 130.422 24.4656C130.974 24.3124 131.559 24.2742 132.13 24.204C132.406 24.1721 132.689 24.204 133.023 24.204C133.023 24.0636 133.023 23.936 133.023 23.8084C133.03 21.7665 133.023 19.7311 133.049 17.6893C133.055 16.8917 133.113 16.0941 133.389 15.3348C133.935 13.829 135.451 12.8399 137.064 12.942C139.119 13.0697 140.648 14.5117 140.731 16.5408C140.828 18.9208 140.828 21.3008 140.866 23.6808C140.866 23.8339 140.866 23.987 140.866 24.1784C140.976 24.1848 141.072 24.1976 141.162 24.1976C143.661 24.1402 146.153 24.0636 148.652 24.0189C151.465 23.9679 154.272 23.8786 157.08 24.1274C157.972 24.204 158.859 24.389 159.745 24.5294C159.874 24.5485 159.996 24.6123 160.118 24.6698C160.606 24.9122 160.677 25.11 160.323 25.5375H160.33Z" fill="#48444A"/>
<path d="M119.147 17.7711C119.128 16.5956 119.006 15.4264 118.589 14.3084C118.223 13.3118 117.542 12.6666 116.496 12.4621C116.008 12.3663 115.501 12.3024 115.007 12.3344C113.485 12.4238 112.458 13.2224 111.893 14.6151C111.604 15.337 111.534 16.0972 111.546 16.8703C111.546 17.1514 111.546 17.4325 111.546 17.7072C111.521 17.7136 111.495 17.7199 111.469 17.7263C111.155 17.3622 110.84 16.9916 110.519 16.6275C109.235 15.1965 107.752 14.0209 105.955 13.2863C103.721 12.3727 101.397 12.2002 99.0212 12.4749C95.8241 12.8454 93.1663 14.2509 91.0606 16.6722C89.0897 18.9466 88.1139 21.6553 87.6773 24.5813C87.3563 26.6768 87.3756 28.7786 87.6003 30.8869C87.8442 33.1868 88.4349 35.3908 89.4877 37.4607C90.8616 40.1631 92.8774 42.2266 95.6893 43.4468C97.9491 44.4307 100.318 44.6415 102.758 44.354C105.274 44.0538 107.425 43.0188 109.222 41.2619C109.871 40.6295 110.455 39.9267 111.091 39.2304C111.091 39.307 111.091 39.3837 111.091 39.4604C111.058 40.7445 111.039 42.035 110.994 43.3191C110.949 44.5585 110.885 45.7979 110.564 47.0117C109.973 49.2541 108.555 50.6468 106.314 51.209C104.632 51.6306 102.918 51.7009 101.198 51.5284C99.5284 51.3623 98.0326 50.781 96.8577 49.5416C96.2864 48.9347 95.7599 48.2894 95.2207 47.6505C94.7648 47.1139 94.2641 46.6348 93.6285 46.2962C91.8502 45.357 89.5776 46.0406 88.7623 47.7975C88.3065 48.7813 88.3899 49.7907 88.7623 50.7746C89.3722 52.3653 90.5406 53.5025 91.9401 54.3969C94.8419 56.256 98.0839 57.0418 101.499 57.1823C103.29 57.259 105.088 57.2143 106.873 57.0035C108.561 56.8054 110.211 56.486 111.797 55.8599C114.955 54.6141 117.048 52.3653 118.127 49.171C118.865 46.9734 119.135 44.6926 119.141 42.3927C119.167 35.5761 119.154 28.7658 119.16 21.9492C119.16 20.5501 119.167 19.151 119.141 17.7519L119.147 17.7711ZM111.148 30.4908C110.911 32.714 110.121 34.7072 108.516 36.3172C107.264 37.5757 105.736 38.2785 103.952 38.4382C102.88 38.534 101.833 38.4382 100.819 38.0804C98.9827 37.4416 97.6602 36.2086 96.7678 34.5092C96.1194 33.2762 95.8113 31.941 95.6765 30.561C95.6123 29.8647 95.5802 29.1683 95.5545 28.7275C95.5737 26.6065 95.7663 24.773 96.4918 23.0353C97.3841 20.8951 98.8158 19.2468 101.133 18.6399C104.446 17.7711 107.649 18.7293 109.633 21.9556C110.449 23.2844 110.859 24.7474 111.065 26.2743C111.251 27.6734 111.296 29.0789 111.142 30.4908H111.148Z" fill="#F05152"/>
<path d="M57.6035 39.7642C57.4492 38.0761 57.0891 36.4392 56.4398 34.8726C55.0639 31.5156 52.7494 29.0283 49.4576 27.4489C47.1109 26.3235 44.6163 25.8951 41.8903 25.8695C39.8587 25.8695 37.7692 26.2084 35.8147 26.9373C32.0021 28.3633 29.3083 30.9529 27.7524 34.7063C26.9809 36.5671 26.5951 38.5109 26.4729 40.5187C26.3444 42.6863 26.5051 44.822 27.1094 46.9065C28.5239 51.8237 31.6421 55.1807 36.5283 56.8048C39.5694 57.8151 42.7068 57.9174 45.8443 57.2524C51.7914 55.9991 55.514 52.3672 57.102 46.5676C57.7128 44.3425 57.8092 42.0661 57.597 39.7642H57.6035ZM49.0718 46.6252C48.3775 48.5435 47.2395 50.1101 45.375 51.0756C44.3206 51.6191 43.189 51.8109 42.0125 51.8109C40.3923 51.8109 38.9072 51.3825 37.6213 50.3722C36.4897 49.4834 35.7311 48.3197 35.2103 46.9961C34.5095 45.2121 34.2974 43.3513 34.3231 41.4523C34.3488 39.5596 34.6445 37.7244 35.4225 35.9852C36.3997 33.8111 38.0006 32.3213 40.3859 31.8289C43.5362 31.1831 46.603 32.251 48.3453 35.2818C49.2197 36.7973 49.599 38.447 49.7469 40.1606C49.7919 40.6913 49.8048 41.2221 49.8369 41.7528C49.8112 43.4153 49.6376 45.0522 49.0718 46.6252Z" fill="#48444A"/>
<path d="M79.068 52.2211C78.8166 52.5143 78.5651 52.8074 78.3073 53.0878C77.0438 54.4707 75.6449 55.6751 73.8979 56.4399C72.7052 56.9624 71.4482 57.2683 70.1524 57.383C68.5021 57.5296 66.8647 57.485 65.2659 57.0134C63.0806 56.3698 61.2884 55.1781 60.0442 53.2535C59.3351 52.1574 58.987 50.9274 58.7549 49.6593C58.51 48.3019 58.4648 46.9317 58.4648 45.5616C58.4648 40.6227 58.4648 35.6902 58.4648 30.7513C58.4648 29.9292 58.5035 29.1135 58.7807 28.3297C59.3867 26.5899 60.8823 25.7614 62.6744 25.8825C64.7309 26.0227 65.9493 27.3992 66.2136 29.2155C66.2909 29.738 66.3361 30.2733 66.3361 30.8023C66.349 35.1867 66.3361 39.5712 66.3554 43.9493C66.3619 45.4086 66.523 46.8616 67.0194 48.2573C67.3933 49.3024 68.0057 50.1882 68.9727 50.7936C69.5722 51.1632 70.2362 51.3672 70.9324 51.4245C73.221 51.6157 75.142 50.8382 76.7214 49.2004C77.798 48.0852 78.2944 46.7469 78.4491 45.2366C78.649 43.3375 78.6683 41.4384 78.6683 39.533C78.6683 36.6015 78.6683 33.6637 78.6683 30.7322C78.6683 29.9356 78.7199 29.139 78.9906 28.3743C79.6288 26.5517 81.2663 25.7296 83.0326 25.8889C84.9859 26.061 86.185 27.3929 86.4364 29.3875C86.4815 29.7508 86.5137 30.114 86.5137 30.4773C86.5137 38.1373 86.5137 45.7974 86.5008 53.4574C86.5008 54.4771 86.2817 55.4649 85.5983 56.2742C84.6313 57.4213 83.3614 57.7336 81.9367 57.3894C80.6216 57.0708 79.7771 56.1977 79.4096 54.9359C79.2356 54.3305 79.2098 53.6741 79.1389 53.0432C79.1067 52.7819 79.1389 52.5143 79.1389 52.2466C79.1196 52.2339 79.1002 52.2275 79.0744 52.2147L79.068 52.2211Z" fill="#48444A"/>
<path d="M14.3396 32.7935C13.6769 32.8892 13.0528 32.9721 12.4352 33.0614C11.4379 33.2018 10.4407 33.2975 9.48204 32.8764C8.36898 32.3915 7.81567 31.511 7.73847 30.3242C7.66769 29.1438 8.221 28.3144 9.26329 27.7848C10.1254 27.3446 11.0648 27.1978 12.0041 27.0638C12.4866 26.9936 12.9628 26.9235 13.4903 26.8469C13.3938 26.1514 13.3037 25.4942 13.2072 24.8307C12.9499 23.025 12.789 21.2257 13.0078 19.3945C13.3488 16.5935 14.8736 14.7304 17.4664 13.6585C18.9591 13.0396 20.5225 12.7078 22.1053 12.4526C23.4113 12.2484 24.711 12.1272 26.0235 12.191C26.9435 12.2357 27.8442 12.3824 28.6742 12.8099C30.4564 13.7223 30.7845 16.0767 29.3176 17.4421C28.893 17.8377 28.3783 18.0419 27.7992 18.061C26.847 18.0929 25.8948 18.0993 24.9426 18.1376C24.2477 18.1695 23.5786 18.3099 22.9352 18.5715C22.0666 18.9351 21.6098 19.6051 21.4683 20.5111C21.301 21.5639 21.3589 22.6103 21.494 23.6503C21.5777 24.3139 21.6871 24.9774 21.79 25.692C22.3369 25.6218 22.8709 25.5517 23.4113 25.4815C25.2128 25.239 27.0143 24.9583 28.8222 24.7605C29.6908 24.6648 30.5851 24.6393 31.4472 24.8881C32.3415 25.1433 32.6246 25.7558 32.245 26.6044C32.1485 26.8214 32.0327 27.0319 31.8976 27.217C30.8102 28.6908 29.4463 29.8138 27.7091 30.4582C26.7183 30.8283 25.7339 31.2047 24.6788 31.3515C24.0804 31.4344 23.4757 31.5174 22.8773 31.6067C22.8065 31.6195 22.7422 31.6322 22.6393 31.6514C22.7358 32.366 22.8323 33.0614 22.9288 33.7569C23.154 35.3712 23.3856 36.979 23.6172 38.5933C23.8424 40.182 24.0676 41.7707 24.2928 43.3595C24.5179 44.961 24.7496 46.5561 24.9747 48.1576C25.2064 49.7718 25.2643 50.1546 25.4959 51.7689C25.6374 52.7898 25.7468 53.8106 25.4637 54.8251C25.0134 56.4458 23.9582 57.4411 22.2854 57.7474C20.1815 58.1366 18.3543 57.0647 17.6659 54.9464C17.3764 54.0467 17.2413 53.0896 17.0933 52.1453C16.8424 50.5375 16.7973 50.1483 16.5657 48.534C16.3405 46.9453 16.1153 45.3565 15.8902 43.7678C15.6585 42.1536 15.4334 40.5457 15.2017 38.9314C14.9765 37.3427 14.7514 35.754 14.5262 34.1653C14.4618 33.725 14.3975 33.2784 14.3267 32.7807L14.3396 32.7935Z" fill="#48444A"/>
<path d="M125.321 22.211C123.745 22.1141 122.41 21.5973 121.736 20.144C120.465 17.4052 122.183 14.8667 124.711 14.5114C126.384 14.2724 127.771 14.8085 128.75 16.2296C129.158 16.8239 129.256 17.515 129.275 18.2191C129.327 20.1827 128.141 21.7136 126.28 22.0947C125.949 22.1593 125.612 22.1787 125.321 22.2174V22.211Z" fill="#48444A"/>
<path d="M177.908 39.7458C177.767 38.0561 177.394 36.4177 176.738 34.8496C175.151 31.0223 172.406 28.3854 168.511 26.9197C166.73 26.2477 164.879 25.9597 162.989 25.8829C162.61 25.8701 162.231 25.8637 161.851 25.8765C161.029 25.8957 160.206 25.9725 159.389 26.1069C158.927 26.1837 158.464 26.2669 158.046 26.3373C156.118 26.8109 154.633 27.5533 153.771 28.0526C153.759 28.059 153.746 28.0654 153.733 28.0782C153.469 28.2382 153.212 28.3982 152.968 28.571C152.962 28.571 152.955 28.5774 152.955 28.5774C150.217 30.4591 148.449 33.1088 147.485 36.3729C146.849 38.549 146.656 40.7698 146.791 43.0291C146.919 45.1732 147.337 47.2533 148.243 49.2118C150.191 53.3847 153.444 56.0088 157.898 57.1481C159.756 57.6217 161.659 57.7561 163.574 57.6281C165.772 57.4873 167.887 57.0265 169.88 56.0536C173.12 54.4664 175.369 51.9767 176.726 48.6677C177.491 46.7989 177.883 44.8532 177.96 42.8371C177.966 42.6259 177.998 42.4211 178.018 42.2099V41.2755C177.973 40.7698 177.928 40.2642 177.889 39.7522L177.908 39.7458ZM169.391 46.6325C168.691 48.5653 167.553 50.1462 165.676 51.1126C164.635 51.6503 163.51 51.8423 162.346 51.8423C160.714 51.8423 159.216 51.4135 157.924 50.3958C156.793 49.4998 156.041 48.3349 155.52 47.0101C154.826 45.2308 154.614 43.3811 154.639 41.4931C154.665 39.5986 154.954 37.7617 155.732 36.0209C156.709 33.8448 158.297 32.3471 160.681 31.8543C163.844 31.1951 166.91 32.2767 168.646 35.2912C169.533 36.8273 169.918 38.4978 170.053 40.2386C170.092 40.757 170.111 41.2819 170.143 41.8003C170.118 43.4515 169.944 45.0836 169.378 46.6453L169.391 46.6325Z" fill="#48444A"/>
<path d="M129.275 52.7626C129.275 53.3781 129.21 54.0128 129.074 54.6155C128.762 56.0005 127.943 56.9943 126.552 57.4623C126.259 57.5649 125.941 57.6034 125.635 57.6739H124.823C124.693 57.6419 124.569 57.6034 124.439 57.5778C122.919 57.2572 121.996 56.289 121.593 54.8592C121.404 54.1924 121.32 53.4807 121.32 52.7882C121.3 45.3506 121.307 37.9066 121.313 30.4691C121.313 29.533 121.417 28.6033 121.853 27.7441C122.509 26.4553 123.582 25.8013 125.037 25.7244C125.655 25.6923 126.24 25.7693 126.779 25.9809C127.098 26.1027 127.403 26.2758 127.696 26.4938C127.702 26.5002 127.715 26.5066 127.728 26.5066C128.131 26.8208 128.58 27.2953 128.885 28.0006C128.898 28.0262 128.911 28.0583 128.918 28.0839C128.918 28.0967 128.931 28.116 128.937 28.1288C128.944 28.148 128.95 28.1673 128.957 28.1865C128.97 28.2186 128.976 28.2506 128.989 28.2763C129.009 28.3404 129.028 28.3981 129.048 28.4622C129.054 28.4943 129.067 28.5263 129.074 28.5584C129.08 28.584 129.087 28.6161 129.093 28.6417C129.093 28.6417 129.093 28.6481 129.093 28.6545C129.132 28.8213 129.171 28.988 129.197 29.1547C129.256 29.5265 129.275 29.9112 129.275 30.3024C129.275 37.7848 129.282 45.2737 129.269 52.7561L129.275 52.7626Z" fill="#48444A"/>
</svg>
